<svg xmlns="http://www.w3.org/2000/svg" width="1400" height="830" viewBox="0 0 1400 830" role="img"><style>@keyframes dash{to{stroke-dashoffset:-28}} .flow{stroke-dasharray:6 8;animation:dash 1.1s linear infinite}@keyframes pulse{0%,100%{opacity:.35}50%{opacity:1}} .pulse{animation:pulse 2.4s ease-in-out infinite}</style><defs><marker id="ah" viewBox="0 0 10 10" refX="9" refY="5" markerWidth="6" markerHeight="6" orient="auto"><path d="M0 1.5L8.5 5L0 8.5z" fill="#3A4560"/></marker><pattern id="dots" width="22" height="22" patternUnits="userSpaceOnUse"><circle cx="1" cy="1" r="1" fill="#FFFFFF" fill-opacity=".045"/></pattern><linearGradient id="cardg" x1="0" y1="0" x2="0" y2="1"><stop offset="0" stop-color="#161D2C"/><stop offset="1" stop-color="#11172A"/></linearGradient></defs><rect width="1400" height="830" rx="24" fill="#0B0F17"/><rect width="1400" height="830" rx="24" fill="url(#dots)"/><text x="56" y="62" font-family="Inter, -apple-system, BlinkMacSystemFont, 'Segoe UI', Helvetica, Arial, sans-serif" font-size="24" font-weight="800" fill="#E6EDF3" text-anchor="start">Evaluation: 25 catalog bugs, end to end (baseline)</text><text x="56" y="90" font-family="Inter, -apple-system, BlinkMacSystemFont, 'Segoe UI', Helvetica, Arial, sans-serif" font-size="15" font-weight="500" fill="#8B98AD" text-anchor="start">gpt-6-luna · one seed · evals/reports/2026-10-10 · drawn by make readme-assets</text><rect x="56" y="118" width="200" height="96" rx="18" fill="url(#cardg)" stroke="#263042"/><text x="74" y="166" font-family="Inter, -apple-system, BlinkMacSystemFont, 'Segoe UI', Helvetica, Arial, sans-serif" font-size="30" font-weight="800" fill="#22D3EE" text-anchor="start">16/25</text><text x="74" y="194" font-family="Inter, -apple-system, BlinkMacSystemFont, 'Segoe UI', Helvetica, Arial, sans-serif" font-size="13" font-weight="600" fill="#8B98AD" text-anchor="start">root cause right or close</text><rect x="272" y="118" width="200" height="96" rx="18" fill="url(#cardg)" stroke="#263042"/><text x="290" y="166" font-family="Inter, -apple-system, BlinkMacSystemFont, 'Segoe UI', Helvetica, Arial, sans-serif" font-size="30" font-weight="800" fill="#34D399" text-anchor="start">12/25</text><text x="290" y="194" font-family="Inter, -apple-system, BlinkMacSystemFont, 'Segoe UI', Helvetica, Arial, sans-serif" font-size="13" font-weight="600" fill="#8B98AD" text-anchor="start">root cause exact</text><rect x="488" y="118" width="200" height="96" rx="18" fill="url(#cardg)" stroke="#263042"/><text x="506" y="166" font-family="Inter, -apple-system, BlinkMacSystemFont, 'Segoe UI', Helvetica, Arial, sans-serif" font-size="30" font-weight="800" fill="#7C5CFF" text-anchor="start">18/25</text><text x="506" y="194" font-family="Inter, -apple-system, BlinkMacSystemFont, 'Segoe UI', Helvetica, Arial, sans-serif" font-size="13" font-weight="600" fill="#8B98AD" text-anchor="start">category right</text><rect x="704" y="118" width="200" height="96" rx="18" fill="url(#cardg)" stroke="#263042"/><text x="722" y="166" font-family="Inter, -apple-system, BlinkMacSystemFont, 'Segoe UI', Helvetica, Arial, sans-serif" font-size="30" font-weight="800" fill="#34D399" text-anchor="start">12/19</text><text x="722" y="194" font-family="Inter, -apple-system, BlinkMacSystemFont, 'Segoe UI', Helvetica, Arial, sans-serif" font-size="13" font-weight="600" fill="#8B98AD" text-anchor="start">code bugs: fix validated</text><rect x="920" y="118" width="200" height="96" rx="18" fill="url(#cardg)" stroke="#263042"/><text x="938" y="166" font-family="Inter, -apple-system, BlinkMacSystemFont, 'Segoe UI', Helvetica, Arial, sans-serif" font-size="30" font-weight="800" fill="#F59E0B" text-anchor="start">7/15</text><text x="938" y="194" font-family="Inter, -apple-system, BlinkMacSystemFont, 'Segoe UI', Helvetica, Arial, sans-serif" font-size="13" font-weight="600" fill="#8B98AD" text-anchor="start">hidden tests pass</text><rect x="1136" y="118" width="200" height="96" rx="18" fill="url(#cardg)" stroke="#263042"/><text x="1154" y="166" font-family="Inter, -apple-system, BlinkMacSystemFont, 'Segoe UI', Helvetica, Arial, sans-serif" font-size="30" font-weight="800" fill="#8B98AD" text-anchor="start">$0.017</text><text x="1154" y="194" font-family="Inter, -apple-system, BlinkMacSystemFont, 'Segoe UI', Helvetica, Arial, sans-serif" font-size="13" font-weight="600" fill="#8B98AD" text-anchor="start">median cost per run</text><text x="56" y="296" font-family="Inter, -apple-system, BlinkMacSystemFont, 'Segoe UI', Helvetica, Arial, sans-serif" font-size="14" font-weight="600" fill="#E6EDF3" text-anchor="start">root cause</text><text x="56" y="342" font-family="Inter, -apple-system, BlinkMacSystemFont, 'Segoe UI', Helvetica, Arial, sans-serif" font-size="14" font-weight="600" fill="#E6EDF3" text-anchor="start">fix validated</text><text x="56" y="388" font-family="Inter, -apple-system, BlinkMacSystemFont, 'Segoe UI', Helvetica, Arial, sans-serif" font-size="14" font-weight="600" fill="#E6EDF3" text-anchor="start">hidden test</text><text x="240.0" y="258" font-family="'JetBrains Mono', SFMono-Regular, Menlo, Consolas, monospace" font-size="11" font-weight="600" fill="#8B98AD" text-anchor="middle">001</text><rect x="220" y="270" width="40" height="40" rx="9" fill="#34D399" fill-opacity=".85"/><rect x="220" y="316" width="40" height="40" rx="9" fill="#34D399" fill-opacity=".85"/><rect x="220" y="362" width="40" height="40" rx="9" fill="#34D399" fill-opacity=".85"/><text x="286.0" y="258" font-family="'JetBrains Mono', SFMono-Regular, Menlo, Consolas, monospace" font-size="11" font-weight="600" fill="#8B98AD" text-anchor="middle">002</text><rect x="266" y="270" width="40" height="40" rx="9" fill="#34D399" fill-opacity=".85"/><rect x="266" y="316" width="40" height="40" rx="9" fill="#34D399" fill-opacity=".85"/><rect x="266" y="362" width="40" height="40" rx="9" fill="#34D399" fill-opacity=".85"/><text x="332.0" y="258" font-family="'JetBrains Mono', SFMono-Regular, Menlo, Consolas, monospace" font-size="11" font-weight="600" fill="#8B98AD" text-anchor="middle">003</text><rect x="312" y="270" width="40" height="40" rx="9" fill="#34D399" fill-opacity=".85"/><rect x="312" y="316" width="40" height="40" rx="9" fill="#34D399" fill-opacity=".85"/><rect x="312" y="362" width="40" height="40" rx="9" fill="#F43F5E" fill-opacity=".85"/><text x="378.0" y="258" font-family="'JetBrains Mono', SFMono-Regular, Menlo, Consolas, monospace" font-size="11" font-weight="600" fill="#8B98AD" text-anchor="middle">004</text><rect x="358" y="270" width="40" height="40" rx="9" fill="#34D399" fill-opacity=".85"/><rect x="358" y="316" width="40" height="40" rx="9" fill="#F43F5E" fill-opacity=".85"/><rect x="358" y="362" width="40" height="40" rx="9" fill="#F43F5E" fill-opacity=".85"/><text x="424.0" y="258" font-family="'JetBrains Mono', SFMono-Regular, Menlo, Consolas, monospace" font-size="11" font-weight="600" fill="#8B98AD" text-anchor="middle">005</text><rect x="404" y="270" width="40" height="40" rx="9" fill="#34D399" fill-opacity=".85"/><rect x="404" y="316" width="40" height="40" rx="9" fill="#34D399" fill-opacity=".85"/><rect x="404" y="362" width="40" height="40" rx="9" fill="#34D399" fill-opacity=".85"/><text x="470.0" y="258" font-family="'JetBrains Mono', SFMono-Regular, Menlo, Consolas, monospace" font-size="11" font-weight="600" fill="#22D3EE" text-anchor="middle">006</text><rect x="450" y="270" width="40" height="40" rx="9" fill="#F59E0B" fill-opacity=".85"/><rect x="450" y="316" width="40" height="40" rx="9" fill="none" stroke="#263042"/><rect x="450" y="362" width="40" height="40" rx="9" fill="none" stroke="#263042"/><text x="516.0" y="258" font-family="'JetBrains Mono', SFMono-Regular, Menlo, Consolas, monospace" font-size="11" font-weight="600" fill="#8B98AD" text-anchor="middle">007</text><rect x="496" y="270" width="40" height="40" rx="9" fill="#F59E0B" fill-opacity=".85"/><rect x="496" y="316" width="40" height="40" rx="9" fill="#F43F5E" fill-opacity=".85"/><rect x="496" y="362" width="40" height="40" rx="9" fill="#F43F5E" fill-opacity=".85"/><text x="562.0" y="258" font-family="'JetBrains Mono', SFMono-Regular, Menlo, Consolas, monospace" font-size="11" font-weight="600" fill="#8B98AD" text-anchor="middle">008</text><rect x="542" y="270" width="40" height="40" rx="9" fill="#34D399" fill-opacity=".85"/><rect x="542" y="316" width="40" height="40" rx="9" fill="#34D399" fill-opacity=".85"/><rect x="542" y="362" width="40" height="40" rx="9" fill="#34D399" fill-opacity=".85"/><text x="608.0" y="258" font-family="'JetBrains Mono', SFMono-Regular, Menlo, Consolas, monospace" font-size="11" font-weight="600" fill="#8B98AD" text-anchor="middle">009</text><rect x="588" y="270" width="40" height="40" rx="9" fill="#34D399" fill-opacity=".85"/><rect x="588" y="316" width="40" height="40" rx="9" fill="#34D399" fill-opacity=".85"/><rect x="588" y="362" width="40" height="40" rx="9" fill="#F43F5E" fill-opacity=".85"/><text x="654.0" y="258" font-family="'JetBrains Mono', SFMono-Regular, Menlo, Consolas, monospace" font-size="11" font-weight="600" fill="#8B98AD" text-anchor="middle">010</text><rect x="634" y="270" width="40" height="40" rx="9" fill="#34D399" fill-opacity=".85"/><rect x="634" y="316" width="40" height="40" rx="9" fill="#34D399" fill-opacity=".85"/><rect x="634" y="362" width="40" height="40" rx="9" fill="#34D399" fill-opacity=".85"/><text x="700.0" y="258" font-family="'JetBrains Mono', SFMono-Regular, Menlo, Consolas, monospace" font-size="11" font-weight="600" fill="#8B98AD" text-anchor="middle">011</text><rect x="680" y="270" width="40" height="40" rx="9" fill="#F59E0B" fill-opacity=".85"/><rect x="680" y="316" width="40" height="40" rx="9" fill="#34D399" fill-opacity=".85"/><rect x="680" y="362" width="40" height="40" rx="9" fill="#34D399" fill-opacity=".85"/><text x="746.0" y="258" font-family="'JetBrains Mono', SFMono-Regular, Menlo, Consolas, monospace" font-size="11" font-weight="600" fill="#8B98AD" text-anchor="middle">012</text><rect x="726" y="270" width="40" height="40" rx="9" fill="#34D399" fill-opacity=".85"/><rect x="726" y="316" width="40" height="40" rx="9" fill="#34D399" fill-opacity=".85"/><rect x="726" y="362" width="40" height="40" rx="9" fill="#34D399" fill-opacity=".85"/><text x="792.0" y="258" font-family="'JetBrains Mono', SFMono-Regular, Menlo, Consolas, monospace" font-size="11" font-weight="600" fill="#8B98AD" text-anchor="middle">013</text><rect x="772" y="270" width="40" height="40" rx="9" fill="#F43F5E" fill-opacity=".85"/><rect x="772" y="316" width="40" height="40" rx="9" fill="#34D399" fill-opacity=".85"/><rect x="772" y="362" width="40" height="40" rx="9" fill="#F43F5E" fill-opacity=".85"/><text x="838.0" y="258" font-family="'JetBrains Mono', SFMono-Regular, Menlo, Consolas, monospace" font-size="11" font-weight="600" fill="#8B98AD" text-anchor="middle">014</text><rect x="818" y="270" width="40" height="40" rx="9" fill="#F43F5E" fill-opacity=".85"/><rect x="818" y="316" width="40" height="40" rx="9" fill="#34D399" fill-opacity=".85"/><rect x="818" y="362" width="40" height="40" rx="9" fill="#F43F5E" fill-opacity=".85"/><text x="884.0" y="258" font-family="'JetBrains Mono', SFMono-Regular, Menlo, Consolas, monospace" font-size="11" font-weight="600" fill="#8B98AD" text-anchor="middle">015</text><rect x="864" y="270" width="40" height="40" rx="9" fill="#F43F5E" fill-opacity=".85"/><rect x="864" y="316" width="40" height="40" rx="9" fill="#F43F5E" fill-opacity=".85"/><rect x="864" y="362" width="40" height="40" rx="9" fill="none" stroke="#263042"/><text x="930.0" y="258" font-family="'JetBrains Mono', SFMono-Regular, Menlo, Consolas, monospace" font-size="11" font-weight="600" fill="#8B98AD" text-anchor="middle">016</text><rect x="910" y="270" width="40" height="40" rx="9" fill="#34D399" fill-opacity=".85"/><rect x="910" y="316" width="40" height="40" rx="9" fill="#F43F5E" fill-opacity=".85"/><rect x="910" y="362" width="40" height="40" rx="9" fill="#F43F5E" fill-opacity=".85"/><text x="976.0" y="258" font-family="'JetBrains Mono', SFMono-Regular, Menlo, Consolas, monospace" font-size="11" font-weight="600" fill="#8B98AD" text-anchor="middle">017</text><rect x="956" y="270" width="40" height="40" rx="9" fill="#F43F5E" fill-opacity=".85"/><rect x="956" y="316" width="40" height="40" rx="9" fill="#34D399" fill-opacity=".85"/><rect x="956" y="362" width="40" height="40" rx="9" fill="#F43F5E" fill-opacity=".85"/><text x="1022.0" y="258" font-family="'JetBrains Mono', SFMono-Regular, Menlo, Consolas, monospace" font-size="11" font-weight="600" fill="#8B98AD" text-anchor="middle">018</text><rect x="1002" y="270" width="40" height="40" rx="9" fill="#F43F5E" fill-opacity=".85"/><rect x="1002" y="316" width="40" height="40" rx="9" fill="#F43F5E" fill-opacity=".85"/><rect x="1002" y="362" width="40" height="40" rx="9" fill="none" stroke="#263042"/><text x="1068.0" y="258" font-family="'JetBrains Mono', SFMono-Regular, Menlo, Consolas, monospace" font-size="11" font-weight="600" fill="#8B98AD" text-anchor="middle">019</text><rect x="1048" y="270" width="40" height="40" rx="9" fill="#F43F5E" fill-opacity=".85"/><rect x="1048" y="316" width="40" height="40" rx="9" fill="#F43F5E" fill-opacity=".85"/><rect x="1048" y="362" width="40" height="40" rx="9" fill="none" stroke="#263042"/><text x="1114.0" y="258" font-family="'JetBrains Mono', SFMono-Regular, Menlo, Consolas, monospace" font-size="11" font-weight="600" fill="#8B98AD" text-anchor="middle">020</text><rect x="1094" y="270" width="40" height="40" rx="9" fill="#F43F5E" fill-opacity=".85"/><rect x="1094" y="316" width="40" height="40" rx="9" fill="#F43F5E" fill-opacity=".85"/><rect x="1094" y="362" width="40" height="40" rx="9" fill="none" stroke="#263042"/><text x="1160.0" y="258" font-family="'JetBrains Mono', SFMono-Regular, Menlo, Consolas, monospace" font-size="11" font-weight="600" fill="#22D3EE" text-anchor="middle">021</text><rect x="1140" y="270" width="40" height="40" rx="9" fill="#34D399" fill-opacity=".85"/><rect x="1140" y="316" width="40" height="40" rx="9" fill="none" stroke="#263042"/><rect x="1140" y="362" width="40" height="40" rx="9" fill="none" stroke="#263042"/><text x="1206.0" y="258" font-family="'JetBrains Mono', SFMono-Regular, Menlo, Consolas, monospace" font-size="11" font-weight="600" fill="#22D3EE" text-anchor="middle">022</text><rect x="1186" y="270" width="40" height="40" rx="9" fill="#F43F5E" fill-opacity=".85"/><rect x="1186" y="316" width="40" height="40" rx="9" fill="none" stroke="#263042"/><rect x="1186" y="362" width="40" height="40" rx="9" fill="none" stroke="#263042"/><text x="1252.0" y="258" font-family="'JetBrains Mono', SFMono-Regular, Menlo, Consolas, monospace" font-size="11" font-weight="600" fill="#22D3EE" text-anchor="middle">023</text><rect x="1232" y="270" width="40" height="40" rx="9" fill="#34D399" fill-opacity=".85"/><rect x="1232" y="316" width="40" height="40" rx="9" fill="none" stroke="#263042"/><rect x="1232" y="362" width="40" height="40" rx="9" fill="none" stroke="#263042"/><text x="1298.0" y="258" font-family="'JetBrains Mono', SFMono-Regular, Menlo, Consolas, monospace" font-size="11" font-weight="600" fill="#22D3EE" text-anchor="middle">024</text><rect x="1278" y="270" width="40" height="40" rx="9" fill="#F59E0B" fill-opacity=".85"/><rect x="1278" y="316" width="40" height="40" rx="9" fill="none" stroke="#263042"/><rect x="1278" y="362" width="40" height="40" rx="9" fill="none" stroke="#263042"/><text x="1344.0" y="258" font-family="'JetBrains Mono', SFMono-Regular, Menlo, Consolas, monospace" font-size="11" font-weight="600" fill="#22D3EE" text-anchor="middle">025</text><rect x="1324" y="270" width="40" height="40" rx="9" fill="#F43F5E" fill-opacity=".85"/><rect x="1324" y="316" width="40" height="40" rx="9" fill="none" stroke="#263042"/><rect x="1324" y="362" width="40" height="40" rx="9" fill="none" stroke="#263042"/><rect x="56" y="429" width="16" height="16" rx="4" fill="#34D399" fill-opacity=".85"/><text x="80" y="442" font-family="Inter, -apple-system, BlinkMacSystemFont, 'Segoe UI', Helvetica, Arial, sans-serif" font-size="13" font-weight="500" fill="#8B98AD" text-anchor="start">exact / yes</text><rect x="175.2" y="429" width="16" height="16" rx="4" fill="#F59E0B" fill-opacity=".85"/><text x="199.2" y="442" font-family="Inter, -apple-system, BlinkMacSystemFont, 'Segoe UI', Helvetica, Arial, sans-serif" font-size="13" font-weight="500" fill="#8B98AD" text-anchor="start">directional (right file or module)</text><rect x="460.0" y="429" width="16" height="16" rx="4" fill="#F43F5E" fill-opacity=".85"/><text x="484.0" y="442" font-family="Inter, -apple-system, BlinkMacSystemFont, 'Segoe UI', Helvetica, Arial, sans-serif" font-size="13" font-weight="500" fill="#8B98AD" text-anchor="start">wrong / no</text><rect x="572.0" y="429" width="16" height="16" rx="4" fill="none" stroke="#263042"/><text x="596.0" y="442" font-family="Inter, -apple-system, BlinkMacSystemFont, 'Segoe UI', Helvetica, Arial, sans-serif" font-size="13" font-weight="500" fill="#8B98AD" text-anchor="start">not applicable</text><text x="732.8" y="442" font-family="Inter, -apple-system, BlinkMacSystemFont, 'Segoe UI', Helvetica, Arial, sans-serif" font-size="13" font-weight="500" fill="#22D3EE" text-anchor="start">cyan ids: not-our-bug cases (right answer is routing, not a fix)</text><line x1="56" y1="486" x2="1344" y2="486" stroke="#263042"/><text x="56" y="526" font-family="Inter, -apple-system, BlinkMacSystemFont, 'Segoe UI', Helvetica, Arial, sans-serif" font-size="18" font-weight="800" fill="#E6EDF3" text-anchor="start">Re-runs on later code: the same bugs, baseline → cross-repo → fix-quality → context-lean → context-clear → context-compact</text><text x="56" y="550" font-family="Inter, -apple-system, BlinkMacSystemFont, 'Segoe UI', Helvetica, Arial, sans-serif" font-size="13.5" font-weight="600" fill="#22D3EE" text-anchor="start">cross-repo (a67d35a), 6 bugs: root cause right or close 0 → 5  ·  hidden tests pass 0 → 2</text><text x="56" y="572" font-family="Inter, -apple-system, BlinkMacSystemFont, 'Segoe UI', Helvetica, Arial, sans-serif" font-size="13.5" font-weight="600" fill="#22D3EE" text-anchor="start">fix-quality (85cb379), 8 bugs: root cause right or close 2 → 6  ·  hidden tests pass 0 → 5</text><text x="56" y="594" font-family="Inter, -apple-system, BlinkMacSystemFont, 'Segoe UI', Helvetica, Arial, sans-serif" font-size="13.5" font-weight="600" fill="#22D3EE" text-anchor="start">context-lean (1ae93f2), 8 bugs: root cause right or close 2 → 6  ·  hidden tests pass 0 → 4</text><text x="56" y="616" font-family="Inter, -apple-system, BlinkMacSystemFont, 'Segoe UI', Helvetica, Arial, sans-serif" font-size="13.5" font-weight="600" fill="#22D3EE" text-anchor="start">context-clear (73ecbce), 8 bugs: root cause right or close 2 → 6  ·  hidden tests pass 0 → 3</text><text x="56" y="638" font-family="Inter, -apple-system, BlinkMacSystemFont, 'Segoe UI', Helvetica, Arial, sans-serif" font-size="13.5" font-weight="600" fill="#22D3EE" text-anchor="start">context-compact (d87ed09), 3 bugs: root cause right or close 1 → 1  ·  hidden tests pass 0 → 1</text><text x="56" y="725" font-family="Inter, -apple-system, BlinkMacSystemFont, 'Segoe UI', Helvetica, Arial, sans-serif" font-size="14" font-weight="600" fill="#E6EDF3" text-anchor="start">root cause</text><text x="56" y="757" font-family="Inter, -apple-system, BlinkMacSystemFont, 'Segoe UI', Helvetica, Arial, sans-serif" font-size="14" font-weight="600" fill="#E6EDF3" text-anchor="start">fix validated</text><text x="56" y="789" font-family="Inter, -apple-system, BlinkMacSystemFont, 'Segoe UI', Helvetica, Arial, sans-serif" font-size="14" font-weight="600" fill="#E6EDF3" text-anchor="start">hidden test</text><text x="316.0" y="680" font-family="'JetBrains Mono', SFMono-Regular, Menlo, Consolas, monospace" font-size="12" font-weight="700" fill="#8B98AD" text-anchor="middle">004</text><text x="234.0" y="698" font-family="Inter, -apple-system, BlinkMacSystemFont, 'Segoe UI', Helvetica, Arial, sans-serif" font-size="10" font-weight="600" fill="#8B98AD" text-anchor="middle">B</text><rect x="220" y="706" width="28" height="28" rx="7" fill="#34D399" fill-opacity=".85"/><rect x="220" y="738" width="28" height="28" rx="7" fill="#F43F5E" fill-opacity=".85"/><rect x="220" y="770" width="28" height="28" rx="7" fill="#F43F5E" fill-opacity=".85"/><text x="266.0" y="698" font-family="Inter, -apple-system, BlinkMacSystemFont, 'Segoe UI', Helvetica, Arial, sans-serif" font-size="10" font-weight="600" fill="#8B98AD" text-anchor="middle">1</text><rect x="252" y="706" width="28" height="28" rx="7" fill="none" stroke="#263042"/><rect x="252" y="738" width="28" height="28" rx="7" fill="none" stroke="#263042"/><rect x="252" y="770" width="28" height="28" rx="7" fill="none" stroke="#263042"/><text x="298.0" y="698" font-family="Inter, -apple-system, BlinkMacSystemFont, 'Segoe UI', Helvetica, Arial, sans-serif" font-size="10" font-weight="600" fill="#8B98AD" text-anchor="middle">2</text><rect x="284" y="706" width="28" height="28" rx="7" fill="#34D399" fill-opacity=".85"/><rect x="284" y="738" width="28" height="28" rx="7" fill="#34D399" fill-opacity=".85"/><rect x="284" y="770" width="28" height="28" rx="7" fill="#34D399" fill-opacity=".85"/><text x="330.0" y="698" font-family="Inter, -apple-system, BlinkMacSystemFont, 'Segoe UI', Helvetica, Arial, sans-serif" font-size="10" font-weight="600" fill="#8B98AD" text-anchor="middle">3</text><rect x="316" y="706" width="28" height="28" rx="7" fill="#34D399" fill-opacity=".85"/><rect x="316" y="738" width="28" height="28" rx="7" fill="#34D399" fill-opacity=".85"/><rect x="316" y="770" width="28" height="28" rx="7" fill="#34D399" fill-opacity=".85"/><text x="362.0" y="698" font-family="Inter, -apple-system, BlinkMacSystemFont, 'Segoe UI', Helvetica, Arial, sans-serif" font-size="10" font-weight="600" fill="#8B98AD" text-anchor="middle">4</text><rect x="348" y="706" width="28" height="28" rx="7" fill="#34D399" fill-opacity=".85"/><rect x="348" y="738" width="28" height="28" rx="7" fill="#34D399" fill-opacity=".85"/><rect x="348" y="770" width="28" height="28" rx="7" fill="#F43F5E" fill-opacity=".85"/><text x="394.0" y="698" font-family="Inter, -apple-system, BlinkMacSystemFont, 'Segoe UI', Helvetica, Arial, sans-serif" font-size="10" font-weight="600" fill="#8B98AD" text-anchor="middle">5</text><rect x="380" y="706" width="28" height="28" rx="7" fill="#34D399" fill-opacity=".85"/><rect x="380" y="738" width="28" height="28" rx="7" fill="#34D399" fill-opacity=".85"/><rect x="380" y="770" width="28" height="28" rx="7" fill="#34D399" fill-opacity=".85"/><text x="538.0" y="680" font-family="'JetBrains Mono', SFMono-Regular, Menlo, Consolas, monospace" font-size="12" font-weight="700" fill="#8B98AD" text-anchor="middle">013</text><text x="456.0" y="698" font-family="Inter, -apple-system, BlinkMacSystemFont, 'Segoe UI', Helvetica, Arial, sans-serif" font-size="10" font-weight="600" fill="#8B98AD" text-anchor="middle">B</text><rect x="442" y="706" width="28" height="28" rx="7" fill="#F43F5E" fill-opacity=".85"/><rect x="442" y="738" width="28" height="28" rx="7" fill="#34D399" fill-opacity=".85"/><rect x="442" y="770" width="28" height="28" rx="7" fill="#F43F5E" fill-opacity=".85"/><text x="488.0" y="698" font-family="Inter, -apple-system, BlinkMacSystemFont, 'Segoe UI', Helvetica, Arial, sans-serif" font-size="10" font-weight="600" fill="#8B98AD" text-anchor="middle">1</text><rect x="474" y="706" width="28" height="28" rx="7" fill="#34D399" fill-opacity=".85"/><rect x="474" y="738" width="28" height="28" rx="7" fill="#F43F5E" fill-opacity=".85"/><rect x="474" y="770" width="28" height="28" rx="7" fill="#F43F5E" fill-opacity=".85"/><text x="520.0" y="698" font-family="Inter, -apple-system, BlinkMacSystemFont, 'Segoe UI', Helvetica, Arial, sans-serif" font-size="10" font-weight="600" fill="#8B98AD" text-anchor="middle">2</text><rect x="506" y="706" width="28" height="28" rx="7" fill="#F59E0B" fill-opacity=".85"/><rect x="506" y="738" width="28" height="28" rx="7" fill="#34D399" fill-opacity=".85"/><rect x="506" y="770" width="28" height="28" rx="7" fill="#34D399" fill-opacity=".85"/><text x="552.0" y="698" font-family="Inter, -apple-system, BlinkMacSystemFont, 'Segoe UI', Helvetica, Arial, sans-serif" font-size="10" font-weight="600" fill="#8B98AD" text-anchor="middle">3</text><rect x="538" y="706" width="28" height="28" rx="7" fill="#F43F5E" fill-opacity=".85"/><rect x="538" y="738" width="28" height="28" rx="7" fill="#F43F5E" fill-opacity=".85"/><rect x="538" y="770" width="28" height="28" rx="7" fill="none" stroke="#263042"/><text x="584.0" y="698" font-family="Inter, -apple-system, BlinkMacSystemFont, 'Segoe UI', Helvetica, Arial, sans-serif" font-size="10" font-weight="600" fill="#8B98AD" text-anchor="middle">4</text><rect x="570" y="706" width="28" height="28" rx="7" fill="#34D399" fill-opacity=".85"/><rect x="570" y="738" width="28" height="28" rx="7" fill="#F43F5E" fill-opacity=".85"/><rect x="570" y="770" width="28" height="28" rx="7" fill="none" stroke="#263042"/><text x="616.0" y="698" font-family="Inter, -apple-system, BlinkMacSystemFont, 'Segoe UI', Helvetica, Arial, sans-serif" font-size="10" font-weight="600" fill="#8B98AD" text-anchor="middle">5</text><rect x="602" y="706" width="28" height="28" rx="7" fill="#F43F5E" fill-opacity=".85"/><rect x="602" y="738" width="28" height="28" rx="7" fill="#34D399" fill-opacity=".85"/><rect x="602" y="770" width="28" height="28" rx="7" fill="#F43F5E" fill-opacity=".85"/><text x="760.0" y="680" font-family="'JetBrains Mono', SFMono-Regular, Menlo, Consolas, monospace" font-size="12" font-weight="700" fill="#8B98AD" text-anchor="middle">014</text><text x="678.0" y="698" font-family="Inter, -apple-system, BlinkMacSystemFont, 'Segoe UI', Helvetica, Arial, sans-serif" font-size="10" font-weight="600" fill="#8B98AD" text-anchor="middle">B</text><rect x="664" y="706" width="28" height="28" rx="7" fill="#F43F5E" fill-opacity=".85"/><rect x="664" y="738" width="28" height="28" rx="7" fill="#34D399" fill-opacity=".85"/><rect x="664" y="770" width="28" height="28" rx="7" fill="#F43F5E" fill-opacity=".85"/><text x="710.0" y="698" font-family="Inter, -apple-system, BlinkMacSystemFont, 'Segoe UI', Helvetica, Arial, sans-serif" font-size="10" font-weight="600" fill="#8B98AD" text-anchor="middle">1</text><rect x="696" y="706" width="28" height="28" rx="7" fill="#F59E0B" fill-opacity=".85"/><rect x="696" y="738" width="28" height="28" rx="7" fill="#34D399" fill-opacity=".85"/><rect x="696" y="770" width="28" height="28" rx="7" fill="#34D399" fill-opacity=".85"/><text x="742.0" y="698" font-family="Inter, -apple-system, BlinkMacSystemFont, 'Segoe UI', Helvetica, Arial, sans-serif" font-size="10" font-weight="600" fill="#8B98AD" text-anchor="middle">2</text><rect x="728" y="706" width="28" height="28" rx="7" fill="#F43F5E" fill-opacity=".85"/><rect x="728" y="738" width="28" height="28" rx="7" fill="#F43F5E" fill-opacity=".85"/><rect x="728" y="770" width="28" height="28" rx="7" fill="none" stroke="#263042"/><text x="774.0" y="698" font-family="Inter, -apple-system, BlinkMacSystemFont, 'Segoe UI', Helvetica, Arial, sans-serif" font-size="10" font-weight="600" fill="#8B98AD" text-anchor="middle">3</text><rect x="760" y="706" width="28" height="28" rx="7" fill="#34D399" fill-opacity=".85"/><rect x="760" y="738" width="28" height="28" rx="7" fill="#F43F5E" fill-opacity=".85"/><rect x="760" y="770" width="28" height="28" rx="7" fill="none" stroke="#263042"/><text x="806.0" y="698" font-family="Inter, -apple-system, BlinkMacSystemFont, 'Segoe UI', Helvetica, Arial, sans-serif" font-size="10" font-weight="600" fill="#8B98AD" text-anchor="middle">4</text><rect x="792" y="706" width="28" height="28" rx="7" fill="#34D399" fill-opacity=".85"/><rect x="792" y="738" width="28" height="28" rx="7" fill="#34D399" fill-opacity=".85"/><rect x="792" y="770" width="28" height="28" rx="7" fill="#34D399" fill-opacity=".85"/><text x="838.0" y="698" font-family="Inter, -apple-system, BlinkMacSystemFont, 'Segoe UI', Helvetica, Arial, sans-serif" font-size="10" font-weight="600" fill="#8B98AD" text-anchor="middle">5</text><rect x="824" y="706" width="28" height="28" rx="7" fill="#F43F5E" fill-opacity=".85"/><rect x="824" y="738" width="28" height="28" rx="7" fill="#F43F5E" fill-opacity=".85"/><rect x="824" y="770" width="28" height="28" rx="7" fill="#F43F5E" fill-opacity=".85"/><text x="982.0" y="680" font-family="'JetBrains Mono', SFMono-Regular, Menlo, Consolas, monospace" font-size="12" font-weight="700" fill="#8B98AD" text-anchor="middle">015</text><text x="900.0" y="698" font-family="Inter, -apple-system, BlinkMacSystemFont, 'Segoe UI', Helvetica, Arial, sans-serif" font-size="10" font-weight="600" fill="#8B98AD" text-anchor="middle">B</text><rect x="886" y="706" width="28" height="28" rx="7" fill="#F43F5E" fill-opacity=".85"/><rect x="886" y="738" width="28" height="28" rx="7" fill="#F43F5E" fill-opacity=".85"/><rect x="886" y="770" width="28" height="28" rx="7" fill="none" stroke="#263042"/><text x="932.0" y="698" font-family="Inter, -apple-system, BlinkMacSystemFont, 'Segoe UI', Helvetica, Arial, sans-serif" font-size="10" font-weight="600" fill="#8B98AD" text-anchor="middle">1</text><rect x="918" y="706" width="28" height="28" rx="7" fill="#34D399" fill-opacity=".85"/><rect x="918" y="738" width="28" height="28" rx="7" fill="#F43F5E" fill-opacity=".85"/><rect x="918" y="770" width="28" height="28" rx="7" fill="#F43F5E" fill-opacity=".85"/><text x="964.0" y="698" font-family="Inter, -apple-system, BlinkMacSystemFont, 'Segoe UI', Helvetica, Arial, sans-serif" font-size="10" font-weight="600" fill="#8B98AD" text-anchor="middle">2</text><rect x="950" y="706" width="28" height="28" rx="7" fill="#34D399" fill-opacity=".85"/><rect x="950" y="738" width="28" height="28" rx="7" fill="#34D399" fill-opacity=".85"/><rect x="950" y="770" width="28" height="28" rx="7" fill="#34D399" fill-opacity=".85"/><text x="996.0" y="698" font-family="Inter, -apple-system, BlinkMacSystemFont, 'Segoe UI', Helvetica, Arial, sans-serif" font-size="10" font-weight="600" fill="#8B98AD" text-anchor="middle">3</text><rect x="982" y="706" width="28" height="28" rx="7" fill="#34D399" fill-opacity=".85"/><rect x="982" y="738" width="28" height="28" rx="7" fill="#34D399" fill-opacity=".85"/><rect x="982" y="770" width="28" height="28" rx="7" fill="#34D399" fill-opacity=".85"/><text x="1028.0" y="698" font-family="Inter, -apple-system, BlinkMacSystemFont, 'Segoe UI', Helvetica, Arial, sans-serif" font-size="10" font-weight="600" fill="#8B98AD" text-anchor="middle">4</text><rect x="1014" y="706" width="28" height="28" rx="7" fill="#34D399" fill-opacity=".85"/><rect x="1014" y="738" width="28" height="28" rx="7" fill="#34D399" fill-opacity=".85"/><rect x="1014" y="770" width="28" height="28" rx="7" fill="#34D399" fill-opacity=".85"/><text x="1060.0" y="698" font-family="Inter, -apple-system, BlinkMacSystemFont, 'Segoe UI', Helvetica, Arial, sans-serif" font-size="10" font-weight="600" fill="#8B98AD" text-anchor="middle">5</text><rect x="1046" y="706" width="28" height="28" rx="7" fill="none" stroke="#263042"/><rect x="1046" y="738" width="28" height="28" rx="7" fill="none" stroke="#263042"/><rect x="1046" y="770" width="28" height="28" rx="7" fill="none" stroke="#263042"/><text x="1204.0" y="680" font-family="'JetBrains Mono', SFMono-Regular, Menlo, Consolas, monospace" font-size="12" font-weight="700" fill="#8B98AD" text-anchor="middle">016</text><text x="1122.0" y="698" font-family="Inter, -apple-system, BlinkMacSystemFont, 'Segoe UI', Helvetica, Arial, sans-serif" font-size="10" font-weight="600" fill="#8B98AD" text-anchor="middle">B</text><rect x="1108" y="706" width="28" height="28" rx="7" fill="#34D399" fill-opacity=".85"/><rect x="1108" y="738" width="28" height="28" rx="7" fill="#F43F5E" fill-opacity=".85"/><rect x="1108" y="770" width="28" height="28" rx="7" fill="#F43F5E" fill-opacity=".85"/><text x="1154.0" y="698" font-family="Inter, -apple-system, BlinkMacSystemFont, 'Segoe UI', Helvetica, Arial, sans-serif" font-size="10" font-weight="600" fill="#8B98AD" text-anchor="middle">1</text><rect x="1140" y="706" width="28" height="28" rx="7" fill="none" stroke="#263042"/><rect x="1140" y="738" width="28" height="28" rx="7" fill="none" stroke="#263042"/><rect x="1140" y="770" width="28" height="28" rx="7" fill="none" stroke="#263042"/><text x="1186.0" y="698" font-family="Inter, -apple-system, BlinkMacSystemFont, 'Segoe UI', Helvetica, Arial, sans-serif" font-size="10" font-weight="600" fill="#8B98AD" text-anchor="middle">2</text><rect x="1172" y="706" width="28" height="28" rx="7" fill="#34D399" fill-opacity=".85"/><rect x="1172" y="738" width="28" height="28" rx="7" fill="#34D399" fill-opacity=".85"/><rect x="1172" y="770" width="28" height="28" rx="7" fill="#34D399" fill-opacity=".85"/><text x="1218.0" y="698" font-family="Inter, -apple-system, BlinkMacSystemFont, 'Segoe UI', Helvetica, Arial, sans-serif" font-size="10" font-weight="600" fill="#8B98AD" text-anchor="middle">3</text><rect x="1204" y="706" width="28" height="28" rx="7" fill="#34D399" fill-opacity=".85"/><rect x="1204" y="738" width="28" height="28" rx="7" fill="#34D399" fill-opacity=".85"/><rect x="1204" y="770" width="28" height="28" rx="7" fill="#34D399" fill-opacity=".85"/><text x="1250.0" y="698" font-family="Inter, -apple-system, BlinkMacSystemFont, 'Segoe UI', Helvetica, Arial, sans-serif" font-size="10" font-weight="600" fill="#8B98AD" text-anchor="middle">4</text><rect x="1236" y="706" width="28" height="28" rx="7" fill="#34D399" fill-opacity=".85"/><rect x="1236" y="738" width="28" height="28" rx="7" fill="#34D399" fill-opacity=".85"/><rect x="1236" y="770" width="28" height="28" rx="7" fill="#34D399" fill-opacity=".85"/><text x="1282.0" y="698" font-family="Inter, -apple-system, BlinkMacSystemFont, 'Segoe UI', Helvetica, Arial, sans-serif" font-size="10" font-weight="600" fill="#8B98AD" text-anchor="middle">5</text><rect x="1268" y="706" width="28" height="28" rx="7" fill="none" stroke="#263042"/><rect x="1268" y="738" width="28" height="28" rx="7" fill="none" stroke="#263042"/><rect x="1268" y="770" width="28" height="28" rx="7" fill="none" stroke="#263042"/><text x="1426.0" y="680" font-family="'JetBrains Mono', SFMono-Regular, Menlo, Consolas, monospace" font-size="12" font-weight="700" fill="#8B98AD" text-anchor="middle">017</text><text x="1344.0" y="698" font-family="Inter, -apple-system, BlinkMacSystemFont, 'Segoe UI', Helvetica, Arial, sans-serif" font-size="10" font-weight="600" fill="#8B98AD" text-anchor="middle">B</text><rect x="1330" y="706" width="28" height="28" rx="7" fill="#F43F5E" fill-opacity=".85"/><rect x="1330" y="738" width="28" height="28" rx="7" fill="#34D399" fill-opacity=".85"/><rect x="1330" y="770" width="28" height="28" rx="7" fill="#F43F5E" fill-opacity=".85"/><text x="1376.0" y="698" font-family="Inter, -apple-system, BlinkMacSystemFont, 'Segoe UI', Helvetica, Arial, sans-serif" font-size="10" font-weight="600" fill="#8B98AD" text-anchor="middle">1</text><rect x="1362" y="706" width="28" height="28" rx="7" fill="#F43F5E" fill-opacity=".85"/><rect x="1362" y="738" width="28" height="28" rx="7" fill="#34D399" fill-opacity=".85"/><rect x="1362" y="770" width="28" height="28" rx="7" fill="#F43F5E" fill-opacity=".85"/><text x="1408.0" y="698" font-family="Inter, -apple-system, BlinkMacSystemFont, 'Segoe UI', Helvetica, Arial, sans-serif" font-size="10" font-weight="600" fill="#8B98AD" text-anchor="middle">2</text><rect x="1394" y="706" width="28" height="28" rx="7" fill="#F43F5E" fill-opacity=".85"/><rect x="1394" y="738" width="28" height="28" rx="7" fill="#34D399" fill-opacity=".85"/><rect x="1394" y="770" width="28" height="28" rx="7" fill="#F43F5E" fill-opacity=".85"/><text x="1440.0" y="698" font-family="Inter, -apple-system, BlinkMacSystemFont, 'Segoe UI', Helvetica, Arial, sans-serif" font-size="10" font-weight="600" fill="#8B98AD" text-anchor="middle">3</text><rect x="1426" y="706" width="28" height="28" rx="7" fill="#F43F5E" fill-opacity=".85"/><rect x="1426" y="738" width="28" height="28" rx="7" fill="#F43F5E" fill-opacity=".85"/><rect x="1426" y="770" width="28" height="28" rx="7" fill="#F43F5E" fill-opacity=".85"/><text x="1472.0" y="698" font-family="Inter, -apple-system, BlinkMacSystemFont, 'Segoe UI', Helvetica, Arial, sans-serif" font-size="10" font-weight="600" fill="#8B98AD" text-anchor="middle">4</text><rect x="1458" y="706" width="28" height="28" rx="7" fill="#F43F5E" fill-opacity=".85"/><rect x="1458" y="738" width="28" height="28" rx="7" fill="#34D399" fill-opacity=".85"/><rect x="1458" y="770" width="28" height="28" rx="7" fill="#F43F5E" fill-opacity=".85"/><text x="1504.0" y="698" font-family="Inter, -apple-system, BlinkMacSystemFont, 'Segoe UI', Helvetica, Arial, sans-serif" font-size="10" font-weight="600" fill="#8B98AD" text-anchor="middle">5</text><rect x="1490" y="706" width="28" height="28" rx="7" fill="none" stroke="#263042"/><rect x="1490" y="738" width="28" height="28" rx="7" fill="none" stroke="#263042"/><rect x="1490" y="770" width="28" height="28" rx="7" fill="none" stroke="#263042"/><text x="1648.0" y="680" font-family="'JetBrains Mono', SFMono-Regular, Menlo, Consolas, monospace" font-size="12" font-weight="700" fill="#8B98AD" text-anchor="middle">019</text><text x="1566.0" y="698" font-family="Inter, -apple-system, BlinkMacSystemFont, 'Segoe UI', Helvetica, Arial, sans-serif" font-size="10" font-weight="600" fill="#8B98AD" text-anchor="middle">B</text><rect x="1552" y="706" width="28" height="28" rx="7" fill="#F43F5E" fill-opacity=".85"/><rect x="1552" y="738" width="28" height="28" rx="7" fill="#F43F5E" fill-opacity=".85"/><rect x="1552" y="770" width="28" height="28" rx="7" fill="none" stroke="#263042"/><text x="1598.0" y="698" font-family="Inter, -apple-system, BlinkMacSystemFont, 'Segoe UI', Helvetica, Arial, sans-serif" font-size="10" font-weight="600" fill="#8B98AD" text-anchor="middle">1</text><rect x="1584" y="706" width="28" height="28" rx="7" fill="#34D399" fill-opacity=".85"/><rect x="1584" y="738" width="28" height="28" rx="7" fill="#34D399" fill-opacity=".85"/><rect x="1584" y="770" width="28" height="28" rx="7" fill="#34D399" fill-opacity=".85"/><text x="1630.0" y="698" font-family="Inter, -apple-system, BlinkMacSystemFont, 'Segoe UI', Helvetica, Arial, sans-serif" font-size="10" font-weight="600" fill="#8B98AD" text-anchor="middle">2</text><rect x="1616" y="706" width="28" height="28" rx="7" fill="#34D399" fill-opacity=".85"/><rect x="1616" y="738" width="28" height="28" rx="7" fill="#34D399" fill-opacity=".85"/><rect x="1616" y="770" width="28" height="28" rx="7" fill="#34D399" fill-opacity=".85"/><text x="1662.0" y="698" font-family="Inter, -apple-system, BlinkMacSystemFont, 'Segoe UI', Helvetica, Arial, sans-serif" font-size="10" font-weight="600" fill="#8B98AD" text-anchor="middle">3</text><rect x="1648" y="706" width="28" height="28" rx="7" fill="#F59E0B" fill-opacity=".85"/><rect x="1648" y="738" width="28" height="28" rx="7" fill="#34D399" fill-opacity=".85"/><rect x="1648" y="770" width="28" height="28" rx="7" fill="#34D399" fill-opacity=".85"/><text x="1694.0" y="698" font-family="Inter, -apple-system, BlinkMacSystemFont, 'Segoe UI', Helvetica, Arial, sans-serif" font-size="10" font-weight="600" fill="#8B98AD" text-anchor="middle">4</text><rect x="1680" y="706" width="28" height="28" rx="7" fill="#F43F5E" fill-opacity=".85"/><rect x="1680" y="738" width="28" height="28" rx="7" fill="#F43F5E" fill-opacity=".85"/><rect x="1680" y="770" width="28" height="28" rx="7" fill="none" stroke="#263042"/><text x="1726.0" y="698" font-family="Inter, -apple-system, BlinkMacSystemFont, 'Segoe UI', Helvetica, Arial, sans-serif" font-size="10" font-weight="600" fill="#8B98AD" text-anchor="middle">5</text><rect x="1712" y="706" width="28" height="28" rx="7" fill="none" stroke="#263042"/><rect x="1712" y="738" width="28" height="28" rx="7" fill="none" stroke="#263042"/><rect x="1712" y="770" width="28" height="28" rx="7" fill="none" stroke="#263042"/><text x="1870.0" y="680" font-family="'JetBrains Mono', SFMono-Regular, Menlo, Consolas, monospace" font-size="12" font-weight="700" fill="#8B98AD" text-anchor="middle">020</text><text x="1788.0" y="698" font-family="Inter, -apple-system, BlinkMacSystemFont, 'Segoe UI', Helvetica, Arial, sans-serif" font-size="10" font-weight="600" fill="#8B98AD" text-anchor="middle">B</text><rect x="1774" y="706" width="28" height="28" rx="7" fill="#F43F5E" fill-opacity=".85"/><rect x="1774" y="738" width="28" height="28" rx="7" fill="#F43F5E" fill-opacity=".85"/><rect x="1774" y="770" width="28" height="28" rx="7" fill="none" stroke="#263042"/><text x="1820.0" y="698" font-family="Inter, -apple-system, BlinkMacSystemFont, 'Segoe UI', Helvetica, Arial, sans-serif" font-size="10" font-weight="600" fill="#8B98AD" text-anchor="middle">1</text><rect x="1806" y="706" width="28" height="28" rx="7" fill="#34D399" fill-opacity=".85"/><rect x="1806" y="738" width="28" height="28" rx="7" fill="#F43F5E" fill-opacity=".85"/><rect x="1806" y="770" width="28" height="28" rx="7" fill="#F43F5E" fill-opacity=".85"/><text x="1852.0" y="698" font-family="Inter, -apple-system, BlinkMacSystemFont, 'Segoe UI', Helvetica, Arial, sans-serif" font-size="10" font-weight="600" fill="#8B98AD" text-anchor="middle">2</text><rect x="1838" y="706" width="28" height="28" rx="7" fill="#34D399" fill-opacity=".85"/><rect x="1838" y="738" width="28" height="28" rx="7" fill="#F43F5E" fill-opacity=".85"/><rect x="1838" y="770" width="28" height="28" rx="7" fill="none" stroke="#263042"/><text x="1884.0" y="698" font-family="Inter, -apple-system, BlinkMacSystemFont, 'Segoe UI', Helvetica, Arial, sans-serif" font-size="10" font-weight="600" fill="#8B98AD" text-anchor="middle">3</text><rect x="1870" y="706" width="28" height="28" rx="7" fill="#34D399" fill-opacity=".85"/><rect x="1870" y="738" width="28" height="28" rx="7" fill="#F43F5E" fill-opacity=".85"/><rect x="1870" y="770" width="28" height="28" rx="7" fill="none" stroke="#263042"/><text x="1916.0" y="698" font-family="Inter, -apple-system, BlinkMacSystemFont, 'Segoe UI', Helvetica, Arial, sans-serif" font-size="10" font-weight="600" fill="#8B98AD" text-anchor="middle">4</text><rect x="1902" y="706" width="28" height="28" rx="7" fill="#34D399" fill-opacity=".85"/><rect x="1902" y="738" width="28" height="28" rx="7" fill="#F43F5E" fill-opacity=".85"/><rect x="1902" y="770" width="28" height="28" rx="7" fill="none" stroke="#263042"/><text x="1948.0" y="698" font-family="Inter, -apple-system, BlinkMacSystemFont, 'Segoe UI', Helvetica, Arial, sans-serif" font-size="10" font-weight="600" fill="#8B98AD" text-anchor="middle">5</text><rect x="1934" y="706" width="28" height="28" rx="7" fill="none" stroke="#263042"/><rect x="1934" y="738" width="28" height="28" rx="7" fill="none" stroke="#263042"/><rect x="1934" y="770" width="28" height="28" rx="7" fill="none" stroke="#263042"/><text x="56" y="832" font-family="Inter, -apple-system, BlinkMacSystemFont, 'Segoe UI', Helvetica, Arial, sans-serif" font-size="12.5" font-weight="500" fill="#8B98AD" text-anchor="start">B = baseline  ·  1 = cross-repo  ·  2 = fix-quality  ·  3 = context-lean  ·  4 = context-clear  ·  5 = context-compact  ·  empty = not run or not applicable</text></svg>
